<?xml version="1.0" standalone="no"?>
 <!DOCTYPE svg PUBLIC "-//W3C//DTD SVG 1.1//EN" 
 "http://www.w3.org/Graphics/SVG/1.1/DTD/svg11.dtd"> 
<svg
  xmlns:svg="http://www.w3.org/2000/svg"
  xmlns="http://www.w3.org/2000/svg"
  xmlns:xlink="http://www.w3.org/1999/xlink"
  version="1.1"
  width="297.0022mm" height="210.0072mm" viewBox="0.0000 0.0000 297.0022 210.0072">
<title>SVG Image created as MediaPad_HC-B_Silkscreen.svg date 2025/05/24 18:42:42 </title>
  <desc>Image generated by PCBNEW </desc>
<g style="fill:#000000; fill-opacity:1.0000;stroke:#000000; stroke-opacity:1.0000;
stroke-linecap:round; stroke-linejoin:round;"
 transform="translate(0 0) scale(1 1)">
</g>
<g style="fill:none; 
stroke:#000000; stroke-width:0.1000; stroke-opacity:1; 
stroke-linecap:round; stroke-linejoin:round;">
<text x="141.4461" y="70.0000"
transform="scale(-1 1) translate(-282.892252 0)"
textLength="4.5762" font-size="1.3333" lengthAdjust="spacingAndGlyphs"
text-anchor="start" opacity="0" stroke-opacity="0">An. D.</text>
<g class="stroked-text"><desc>An. D.</desc>
<path d="M141.1899 69.5867
L140.7137 69.5867
" />
<path d="M141.2851 69.8724
L140.9518 68.8724
" />
<path d="M140.9518 68.8724
L140.6184 69.8724
" />
<path d="M140.2851 69.2058
L140.2851 69.8724
" />
<path d="M140.2851 69.3010
L140.2375 69.2534
" />
<path d="M140.2375 69.2534
L140.1422 69.2058
" />
<path d="M140.1422 69.2058
L139.9994 69.2058
" />
<path d="M139.9994 69.2058
L139.9041 69.2534
" />
<path d="M139.9041 69.2534
L139.8565 69.3486
" />
<path d="M139.8565 69.3486
L139.8565 69.8724
" />
<path d="M139.3803 69.7772
L139.3327 69.8248
" />
<path d="M139.3327 69.8248
L139.3803 69.8724
" />
<path d="M139.3803 69.8724
L139.4280 69.8248
" />
<path d="M139.4280 69.8248
L139.3803 69.7772
" />
<path d="M139.3803 69.7772
L139.3803 69.8724
" />
<path d="M138.1422 69.8724
L138.1422 68.8724
" />
<path d="M138.1422 68.8724
L137.9041 68.8724
" />
<path d="M137.9041 68.8724
L137.7613 68.9200
" />
<path d="M137.7613 68.9200
L137.6661 69.0153
" />
<path d="M137.6661 69.0153
L137.6184 69.1105
" />
<path d="M137.6184 69.1105
L137.5708 69.3010
" />
<path d="M137.5708 69.3010
L137.5708 69.4438
" />
<path d="M137.5708 69.4438
L137.6184 69.6343
" />
<path d="M137.6184 69.6343
L137.6661 69.7296
" />
<path d="M137.6661 69.7296
L137.7613 69.8248
" />
<path d="M137.7613 69.8248
L137.9041 69.8724
" />
<path d="M137.9041 69.8724
L138.1422 69.8724
" />
<path d="M137.1422 69.7772
L137.0946 69.8248
" />
<path d="M137.0946 69.8248
L137.1422 69.8724
" />
<path d="M137.1422 69.8724
L137.1899 69.8248
" />
<path d="M137.1899 69.8248
L137.1422 69.7772
" />
<path d="M137.1422 69.7772
L137.1422 69.8724
" />
</g><text x="142.9461" y="72.0000"
transform="scale(-1 1) translate(-285.892252 0)"
textLength="7.6714" font-size="1.3333" lengthAdjust="spacingAndGlyphs"
text-anchor="start" opacity="0" stroke-opacity="0">its_kronos</text>
<g class="stroked-text"><desc>its_kronos</desc>
<path d="M142.6422 71.8724
L142.6422 71.2058
" />
<path d="M142.6422 70.8724
L142.6899 70.9200
" />
<path d="M142.6899 70.9200
L142.6422 70.9677
" />
<path d="M142.6422 70.9677
L142.5946 70.9200
" />
<path d="M142.5946 70.9200
L142.6422 70.8724
" />
<path d="M142.6422 70.8724
L142.6422 70.9677
" />
<path d="M142.3089 71.2058
L141.9280 71.2058
" />
<path d="M142.1661 70.8724
L142.1661 71.7296
" />
<path d="M142.1661 71.7296
L142.1184 71.8248
" />
<path d="M142.1184 71.8248
L142.0232 71.8724
" />
<path d="M142.0232 71.8724
L141.9280 71.8724
" />
<path d="M141.6422 71.8248
L141.5470 71.8724
" />
<path d="M141.5470 71.8724
L141.3565 71.8724
" />
<path d="M141.3565 71.8724
L141.2613 71.8248
" />
<path d="M141.2613 71.8248
L141.2137 71.7296
" />
<path d="M141.2137 71.7296
L141.2137 71.6819
" />
<path d="M141.2137 71.6819
L141.2613 71.5867
" />
<path d="M141.2613 71.5867
L141.3565 71.5391
" />
<path d="M141.3565 71.5391
L141.4994 71.5391
" />
<path d="M141.4994 71.5391
L141.5946 71.4915
" />
<path d="M141.5946 71.4915
L141.6422 71.3962
" />
<path d="M141.6422 71.3962
L141.6422 71.3486
" />
<path d="M141.6422 71.3486
L141.5946 71.2534
" />
<path d="M141.5946 71.2534
L141.4994 71.2058
" />
<path d="M141.4994 71.2058
L141.3565 71.2058
" />
<path d="M141.3565 71.2058
L141.2613 71.2534
" />
<path d="M141.0232 71.9677
L140.2613 71.9677
" />
<path d="M140.0232 71.8724
L140.0232 70.8724
" />
<path d="M139.9280 71.4915
L139.6422 71.8724
" />
<path d="M139.6422 71.2058
L140.0232 71.5867
" />
<path d="M139.2137 71.8724
L139.2137 71.2058
" />
<path d="M139.2137 71.3962
L139.1660 71.3010
" />
<path d="M139.1660 71.3010
L139.1184 71.2534
" />
<path d="M139.1184 71.2534
L139.0232 71.2058
" />
<path d="M139.0232 71.2058
L138.9280 71.2058
" />
<path d="M138.4518 71.8724
L138.5470 71.8248
" />
<path d="M138.5470 71.8248
L138.5946 71.7772
" />
<path d="M138.5946 71.7772
L138.6422 71.6819
" />
<path d="M138.6422 71.6819
L138.6422 71.3962
" />
<path d="M138.6422 71.3962
L138.5946 71.3010
" />
<path d="M138.5946 71.3010
L138.5470 71.2534
" />
<path d="M138.5470 71.2534
L138.4518 71.2058
" />
<path d="M138.4518 71.2058
L138.3089 71.2058
" />
<path d="M138.3089 71.2058
L138.2137 71.2534
" />
<path d="M138.2137 71.2534
L138.1660 71.3010
" />
<path d="M138.1660 71.3010
L138.1184 71.3962
" />
<path d="M138.1184 71.3962
L138.1184 71.6819
" />
<path d="M138.1184 71.6819
L138.1660 71.7772
" />
<path d="M138.1660 71.7772
L138.2137 71.8248
" />
<path d="M138.2137 71.8248
L138.3089 71.8724
" />
<path d="M138.3089 71.8724
L138.4518 71.8724
" />
<path d="M137.6899 71.2058
L137.6899 71.8724
" />
<path d="M137.6899 71.3010
L137.6422 71.2534
" />
<path d="M137.6422 71.2534
L137.5470 71.2058
" />
<path d="M137.5470 71.2058
L137.4041 71.2058
" />
<path d="M137.4041 71.2058
L137.3089 71.2534
" />
<path d="M137.3089 71.2534
L137.2613 71.3486
" />
<path d="M137.2613 71.3486
L137.2613 71.8724
" />
<path d="M136.6422 71.8724
L136.7375 71.8248
" />
<path d="M136.7375 71.8248
L136.7851 71.7772
" />
<path d="M136.7851 71.7772
L136.8327 71.6819
" />
<path d="M136.8327 71.6819
L136.8327 71.3962
" />
<path d="M136.8327 71.3962
L136.7851 71.3010
" />
<path d="M136.7851 71.3010
L136.7375 71.2534
" />
<path d="M136.7375 71.2534
L136.6422 71.2058
" />
<path d="M136.6422 71.2058
L136.4994 71.2058
" />
<path d="M136.4994 71.2058
L136.4041 71.2534
" />
<path d="M136.4041 71.2534
L136.3565 71.3010
" />
<path d="M136.3565 71.3010
L136.3089 71.3962
" />
<path d="M136.3089 71.3962
L136.3089 71.6819
" />
<path d="M136.3089 71.6819
L136.3565 71.7772
" />
<path d="M136.3565 71.7772
L136.4041 71.8248
" />
<path d="M136.4041 71.8248
L136.4994 71.8724
" />
<path d="M136.4994 71.8724
L136.6422 71.8724
" />
<path d="M135.9280 71.8248
L135.8327 71.8724
" />
<path d="M135.8327 71.8724
L135.6422 71.8724
" />
<path d="M135.6422 71.8724
L135.5470 71.8248
" />
<path d="M135.5470 71.8248
L135.4994 71.7296
" />
<path d="M135.4994 71.7296
L135.4994 71.6819
" />
<path d="M135.4994 71.6819
L135.5470 71.5867
" />
<path d="M135.5470 71.5867
L135.6422 71.5391
" />
<path d="M135.6422 71.5391
L135.7851 71.5391
" />
<path d="M135.7851 71.5391
L135.8803 71.4915
" />
<path d="M135.8803 71.4915
L135.9280 71.3962
" />
<path d="M135.9280 71.3962
L135.9280 71.3486
" />
<path d="M135.9280 71.3486
L135.8803 71.2534
" />
<path d="M135.8803 71.2534
L135.7851 71.2058
" />
<path d="M135.7851 71.2058
L135.6422 71.2058
" />
<path d="M135.6422 71.2058
L135.5470 71.2534
" />
</g><path d="M141.9461 70.5000
L136.4461 70.5000
" />
<path style="fill:#000000; fill-opacity:1.0000; stroke:none;fill-rule:evenodd;"
d="M 145.9527,70.0533
145.9851,70.0675
146.0138,70.0910
146.0289,70.1115
146.0408,70.1419
146.0439,70.1742
146.0387,70.2062
146.0259,70.2362
146.0062,70.2620
145.9801,70.2817
145.9484,70.2934
145.9154,70.2956
145.8819,70.2886
145.8520,70.2733
145.8271,70.2511
145.8088,70.2234
145.7986,70.1916
145.7980,70.1571
145.8010,70.1432
145.8141,70.1136
145.8345,70.0865
145.8595,70.0657
145.8849,70.0541
145.9186,70.0487
Z" /> 
<path style="fill:#000000; fill-opacity:1.0000; stroke:none;fill-rule:evenodd;"
d="M 145.6277,70.8534
145.6567,70.8691
145.6804,70.8918
145.6971,70.9205
145.7051,70.9541
145.7048,70.9823
145.6960,71.0178
145.6778,71.0478
145.6510,71.0712
145.6162,71.0871
145.5902,71.0915
145.5576,71.0881
145.5268,71.0760
145.4997,71.0566
145.4780,71.0312
145.4637,71.0013
145.4585,70.9682
145.4589,70.9599
145.4667,70.9281
145.4832,70.8981
145.5063,70.8729
145.5342,70.8553
145.5611,70.8472
145.5952,70.8457
Z" /> 
<path style="fill:#000000; fill-opacity:1.0000; stroke:none;fill-rule:evenodd;"
d="M 144.8559,71.7945
144.8934,71.8002
144.9258,71.8154
144.9521,71.8394
144.9709,71.8715
144.9749,71.8828
144.9797,71.9168
144.9748,71.9501
144.9612,71.9808
144.9399,72.0070
144.9120,72.0269
144.8786,72.0384
144.8479,72.0403
144.8154,72.0332
144.7866,72.0179
144.7626,71.9958
144.7449,71.9687
144.7345,71.9379
144.7328,71.9049
144.7411,71.8715
144.7595,71.8398
144.7852,71.8155
144.8168,71.8000
144.8528,71.7945
Z" /> 
<path style="fill:#000000; fill-opacity:1.0000; stroke:none;fill-rule:evenodd;"
d="M 144.3572,70.8329
144.3919,70.8425
144.4209,70.8608
144.4430,70.8867
144.4570,70.9191
144.4618,70.9566
144.4585,70.9840
144.4455,71.0164
144.4240,71.0435
144.3952,71.0638
144.3605,71.0756
144.3310,71.0773
144.2991,71.0704
144.2704,71.0555
144.2465,71.0341
144.2284,71.0077
144.2176,70.9779
144.2155,70.9463
144.2231,70.9143
144.2262,70.9072
144.2464,70.8738
144.2722,70.8501
144.3036,70.8362
144.3408,70.8318
Z" /> 
<path style="fill:#000000; fill-opacity:1.0000; stroke:none;fill-rule:evenodd;"
d="M 146.4361,70.9003
146.4616,70.9114
146.4877,70.9320
146.5089,70.9585
146.5231,70.9883
146.5284,71.0187
146.5261,71.0384
146.5150,71.0685
146.4966,71.0966
146.4729,71.1198
146.4461,71.1351
146.4168,71.1413
146.3834,71.1399
146.3506,71.1310
146.3217,71.1155
146.2999,71.0943
146.2926,71.0833
146.2788,71.0508
146.2748,71.0182
146.2795,70.9866
146.2920,70.9576
146.3112,70.9326
146.3362,70.9130
146.3660,70.9001
146.3996,70.8954
Z" /> 
<path style="fill:#000000; fill-opacity:1.0000; stroke:none;fill-rule:evenodd;"
d="M 145.1551,71.0622
145.1902,71.0681
145.2210,71.0823
145.2463,71.1034
145.2649,71.1298
145.2757,71.1598
145.2776,71.1920
145.2695,71.2247
145.2622,71.2403
145.2406,71.2713
145.2131,71.2928
145.1793,71.3054
145.1670,71.3074
145.1321,71.3064
145.0999,71.2959
145.0720,71.2773
145.0501,71.2517
145.0357,71.2206
145.0306,71.1853
145.0317,71.1681
145.0411,71.1335
145.0591,71.1042
145.0844,71.0817
145.1156,71.0672
145.1515,71.0622
Z" /> 
<path style="fill:#000000; fill-opacity:1.0000; stroke:none;fill-rule:evenodd;"
d="M 144.0506,70.1858
144.0852,70.1960
144.1143,70.2157
144.1371,70.2441
144.1528,70.2806
144.1530,70.2815
144.1562,70.3122
144.1498,70.3434
144.1353,70.3727
144.1141,70.3980
144.0875,70.4173
144.0569,70.4282
144.0327,70.4305
143.9968,70.4250
143.9640,70.4096
143.9364,70.3851
143.9224,70.3654
143.9129,70.3405
143.9101,70.3102
143.9111,70.2918
143.9203,70.2561
143.9379,70.2264
143.9629,70.2038
143.9943,70.1894
144.0310,70.1844
Z" /> 
<path style="fill:#000000; fill-opacity:1.0000; stroke:none;fill-rule:evenodd;"
d="M 145.8441,71.2948
145.8744,71.3087
145.9004,71.3307
145.9200,71.3605
145.9238,71.3697
145.9311,71.4037
145.9286,71.4375
145.9172,71.4693
145.8980,71.4969
145.8718,71.5185
145.8396,71.5320
145.8295,71.5339
145.7998,71.5341
145.7690,71.5283
145.7425,71.5175
145.7369,71.5140
145.7103,71.4902
145.6927,71.4600
145.6848,71.4247
145.6858,71.3890
145.6952,71.3580
145.7139,71.3303
145.7189,71.3249
145.7468,71.3039
145.7783,71.2920
145.8114,71.2891
Z" /> 
<path style="fill:#000000; fill-opacity:1.0000; stroke:none;fill-rule:evenodd;"
d="M 145.3643,71.5747
145.3966,71.5837
145.4257,71.6008
145.4495,71.6258
145.4585,71.6422
145.4675,71.6731
145.4695,71.7062
145.4641,71.7373
145.4602,71.7464
145.4466,71.7668
145.4282,71.7868
145.4083,71.8030
145.3900,71.8123
145.3637,71.8175
145.3282,71.8167
145.2962,71.8075
145.2688,71.7910
145.2468,71.7686
145.2313,71.7417
145.2230,71.7116
145.2230,71.6796
145.2322,71.6470
145.2516,71.6153
145.2702,71.5971
145.2989,71.5813
145.3310,71.5738
Z" /> 
<path style="fill:#000000; fill-opacity:1.0000; stroke:none;fill-rule:evenodd;"
d="M 144.6919,71.3050
144.7221,71.3165
144.7486,71.3350
144.7696,71.3598
144.7835,71.3901
144.7885,71.4250
144.7837,71.4570
144.7693,71.4889
144.7469,71.5160
144.7181,71.5356
144.6983,71.5429
144.6631,71.5473
144.6278,71.5422
144.5951,71.5280
144.5677,71.5053
144.5595,71.4944
144.5472,71.4663
144.5415,71.4339
144.5427,71.4009
144.5514,71.3707
144.5547,71.3644
144.5679,71.3457
144.5836,71.3297
144.5956,71.3209
144.6269,71.3064
144.6596,71.3014
Z" /> 
<path style="fill:#000000; fill-opacity:1.0000; stroke:none;fill-rule:evenodd;"
d="M 144.5978,69.9315
144.6298,69.9414
144.6585,69.9600
144.6819,69.9874
144.6824,69.9883
144.6976,70.0189
144.7029,70.0481
144.6989,70.0786
144.6985,70.0802
144.6841,70.1146
144.6623,70.1429
144.6348,70.1634
144.6031,70.1746
144.5860,70.1765
144.5498,70.1727
144.5161,70.1584
144.4866,70.1342
144.4852,70.1328
144.4668,70.1043
144.4573,70.0717
144.4569,70.0375
144.4655,70.0043
144.4833,69.9747
144.5022,69.9561
144.5320,69.9388
144.5646,69.9306
Z" /> 
<path style="fill:#000000; fill-opacity:1.0000; stroke:none;fill-rule:evenodd;"
d="M 145.3859,70.3049
145.4132,70.3153
145.4221,70.3207
145.4490,70.3449
145.4665,70.3752
145.4743,70.4110
145.4744,70.4322
145.4667,70.4683
145.4494,70.4992
145.4230,70.5240
145.3881,70.5417
145.3818,70.5433
145.3610,70.5445
145.3360,70.5424
145.3112,70.5374
145.2911,70.5301
145.2679,70.5144
145.2465,70.4895
145.2331,70.4602
145.2279,70.4284
145.2309,70.3960
145.2419,70.3649
145.2612,70.3371
145.2886,70.3144
145.2956,70.3107
145.3230,70.3026
145.3544,70.3007
Z" /> 
<path style="fill:#000000; fill-opacity:1.0000; stroke:none;fill-rule:evenodd;"
d="M 145.1071,69.7189
145.1365,69.7340
145.1613,69.7569
145.1795,69.7873
145.1801,69.7888
145.1874,69.8210
145.1858,69.8551
145.1758,69.8875
145.1581,69.9148
145.1515,69.9214
145.1310,69.9374
145.1088,69.9500
145.0891,69.9566
145.0847,69.9572
145.0486,69.9569
145.0163,69.9475
144.9886,69.9306
144.9665,69.9077
144.9508,69.8803
144.9424,69.8498
144.9422,69.8178
144.9511,69.7858
144.9700,69.7552
144.9822,69.7424
145.0106,69.7233
145.0422,69.7132
145.0750,69.7119
Z" /> 
<path style="fill:#000000; fill-opacity:1.0000; stroke:none;fill-rule:evenodd;"
d="M 144.8573,70.6118
144.8820,70.6242
144.9094,70.6477
144.9285,70.6770
144.9385,70.7104
144.9388,70.7463
144.9286,70.7828
144.9183,70.8017
144.8937,70.8277
144.8603,70.8475
144.8561,70.8492
144.8242,70.8557
144.7915,70.8522
144.7600,70.8393
144.7315,70.8178
144.7080,70.7884
144.7031,70.7788
144.6963,70.7518
144.6953,70.7214
144.7001,70.6918
144.7106,70.6672
144.7154,70.6599
144.7309,70.6404
144.7481,70.6265
144.7717,70.6142
144.7978,70.6052
144.8265,70.6037
Z" /> 
<path style="fill:#000000; fill-opacity:1.0000; stroke:none;fill-rule:evenodd;"
d="M 144.5727,68.6843
144.5923,68.6994
144.6054,68.7212
144.6102,68.7482
144.6090,68.7637
144.6030,68.7810
144.5906,68.7962
144.5702,68.8111
144.5406,68.8272
144.5404,68.8273
144.5074,68.8421
144.4812,68.8500
144.4600,68.8510
144.4417,68.8452
144.4245,68.8327
144.4117,68.8192
144.4047,68.8051
144.4014,68.7853
144.4003,68.7708
144.4018,68.7585
144.4079,68.7478
144.4204,68.7340
144.4243,68.7302
144.4469,68.7135
144.4755,68.6979
144.5058,68.6855
144.5338,68.6783
144.5485,68.6777
Z" /> 
<path style="fill:#000000; fill-opacity:1.0000; stroke:none;fill-rule:evenodd;"
d="M 146.1807,70.4794
146.2108,70.4907
146.2230,70.4986
146.2496,70.5237
146.2681,70.5535
146.2684,70.5541
146.2730,70.5736
146.2743,70.5986
146.2725,70.6242
146.2675,70.6452
146.2567,70.6660
146.2350,70.6911
146.2082,70.7103
146.1792,70.7211
146.1686,70.7226
146.1364,70.7211
146.1046,70.7122
146.0767,70.6969
146.0560,70.6766
146.0510,70.6689
146.0390,70.6457
146.0305,70.6220
146.0272,70.6025
146.0279,70.5935
146.0336,70.5699
146.0434,70.5447
146.0556,70.5233
146.0604,70.5171
146.0847,70.4964
146.1148,70.4829
146.1477,70.4770
Z" /> 
<path style="fill:#000000; fill-opacity:1.0000; stroke:none;fill-rule:evenodd;"
d="M 144.4842,68.4994
144.5061,68.5109
144.5070,68.5116
144.5235,68.5323
144.5326,68.5575
144.5328,68.5828
144.5321,68.5854
144.5252,68.6006
144.5143,68.6156
144.5023,68.6272
144.4920,68.6317
144.4889,68.6326
144.4781,68.6389
144.4647,68.6494
144.4600,68.6533
144.4415,68.6658
144.4237,68.6744
144.4090,68.6795
144.3984,68.6816
144.3888,68.6799
144.3753,68.6746
144.3725,68.6733
144.3534,68.6596
144.3390,68.6406
144.3323,68.6204
144.3316,68.6062
144.3336,68.5890
144.3407,68.5732
144.3545,68.5541
144.3733,68.5341
144.4005,68.5145
144.4293,68.5018
144.4580,68.4966
Z" /> 
<path style="fill:#000000; fill-opacity:1.0000; stroke:none;fill-rule:evenodd;"
d="M 145.6160,69.3454
145.6400,69.3462
145.6584,69.3487
145.6753,69.3539
145.6950,69.3624
145.7276,69.3807
145.7641,69.4113
145.7916,69.4482
145.8096,69.4905
145.8177,69.5375
145.8178,69.5392
145.8160,69.5862
145.8052,69.6284
145.7844,69.6688
145.7669,69.6918
145.7360,69.7210
145.7005,69.7440
145.6640,69.7586
145.6626,69.7589
145.6475,69.7607
145.6259,69.7617
145.6021,69.7615
145.5696,69.7584
145.5275,69.7469
145.4903,69.7262
145.4560,69.6953
145.4488,69.6873
145.4258,69.6563
145.4113,69.6246
145.4041,69.5891
145.4031,69.5467
145.4046,69.5215
145.4076,69.5002
145.4129,69.4819
145.4216,69.4623
145.4267,69.4526
145.4531,69.4157
145.4867,69.3841
145.5246,69.3607
145.5263,69.3599
145.5442,69.3524
145.5610,69.3480
145.5808,69.3459
145.6077,69.3454
Z" /> 
<path style="fill:#000000; fill-opacity:1.0000; stroke:none;fill-rule:evenodd;"
d="M 143.4702,68.5707
143.5051,68.5767
143.5330,68.5896
143.5528,68.6086
143.5638,68.6327
143.5649,68.6612
143.5629,68.6708
143.5510,68.6935
143.5316,68.7103
143.5070,68.7197
143.4795,68.7201
143.4762,68.7196
143.4656,68.7194
143.4596,68.7248
143.4547,68.7384
143.4534,68.7434
143.4488,68.7755
143.4507,68.8069
143.4591,68.8333
143.4638,68.8414
143.4776,68.8552
143.4972,68.8640
143.5242,68.8684
143.5604,68.8691
143.5786,68.8690
143.6132,68.8719
143.6389,68.8796
143.6566,68.8928
143.6674,68.9122
143.6724,68.9384
143.6733,68.9531
143.6722,68.9663
143.6669,68.9765
143.6559,68.9884
143.6516,68.9923
143.6269,69.0072
143.5953,69.0168
143.5600,69.0203
143.5462,69.0232
143.5260,69.0311
143.5024,69.0424
143.4782,69.0557
143.4564,69.0695
143.4399,69.0823
143.4374,69.0845
143.4233,69.0959
143.4118,69.1038
143.4083,69.1054
143.3888,69.1095
143.3667,69.1086
143.3481,69.1027
143.3457,69.1014
143.3279,69.0842
143.3168,69.0607
143.3133,69.0341
143.3184,69.0075
143.3209,69.0023
143.3305,68.9881
143.3432,68.9731
143.3628,68.9523
143.3439,68.9208
143.3410,68.9160
143.3261,68.8884
143.3162,68.8631
143.3105,68.8369
143.3083,68.8063
143.3088,68.7679
143.3103,68.7419
143.3157,68.7002
143.3253,68.6659
143.3396,68.6371
143.3595,68.6114
143.3734,68.5979
143.4004,68.5806
143.4318,68.5719
143.4698,68.5707
Z" /> 
<path style="fill:#000000; fill-opacity:1.0000; stroke:none;fill-rule:evenodd;"
d="M 144.1535,68.6202
144.1753,68.6345
144.1918,68.6575
144.1956,68.6659
144.2004,68.6793
144.2011,68.6865
144.1999,68.6911
144.1976,68.7052
144.1949,68.7259
144.1920,68.7509
144.1903,68.7648
144.1852,68.7978
144.1789,68.8302
144.1723,68.8567
144.1590,68.9024
144.1908,68.9239
144.2075,68.9344
144.2271,68.9452
144.2423,68.9519
144.2699,68.9637
144.2951,68.9830
144.3104,69.0072
144.3155,69.0361
144.3146,69.0453
144.3054,69.0671
144.2885,69.0855
144.2662,69.0977
144.2647,69.0982
144.2513,69.1019
144.2395,69.1024
144.2252,69.0997
144.2043,69.0933
144.1848,69.0861
144.1584,69.0739
144.1362,69.0615
144.1215,69.0523
144.1096,69.0456
144.1045,69.0438
144.1020,69.0481
144.0957,69.0600
144.0873,69.0766
144.0814,69.0880
144.0632,69.1181
144.0453,69.1389
144.0267,69.1519
144.0233,69.1535
143.9954,69.1606
143.9694,69.1573
143.9469,69.1440
143.9297,69.1214
143.9221,69.0972
143.9247,69.0711
143.9380,69.0431
143.9482,69.0259
143.9608,69.0021
143.9722,68.9785
143.9897,68.9398
143.9626,68.9120
143.9597,68.9091
143.9421,68.8922
143.9207,68.8730
143.8981,68.8536
143.8765,68.8359
143.8584,68.8220
143.8462,68.8137
143.8339,68.8111
143.8152,68.8154
143.8035,68.8190
143.7732,68.8232
143.7462,68.8198
143.7251,68.8089
143.7128,68.7957
143.7014,68.7729
143.6976,68.7484
143.7019,68.7251
143.7145,68.7062
143.7160,68.7048
143.7342,68.6927
143.7592,68.6806
143.7870,68.6701
143.8136,68.6627
143.8352,68.6599
143.8518,68.6613
143.8872,68.6717
143.9265,68.6923
143.9693,68.7229
144.0155,68.7632
144.0174,68.7651
144.0282,68.7749
144.0356,68.7794
144.0405,68.7774
144.0440,68.7677
144.0469,68.7491
144.0503,68.7206
144.0517,68.7094
144.0575,68.6778
144.0655,68.6547
144.0767,68.6381
144.0919,68.6259
144.1029,68.6204
144.1287,68.6152
Z" /> 
<path style="fill:#000000; fill-opacity:1.0000; stroke:none;fill-rule:evenodd;"
d="M 144.9901,68.3076
145.0173,68.3188
145.0403,68.3398
145.0598,68.3712
145.0611,68.3738
145.0690,68.3911
145.0743,68.4062
145.0774,68.4223
145.0792,68.4430
145.0803,68.4716
145.0806,68.4911
145.0800,68.5186
145.0784,68.5419
145.0759,68.5574
145.0735,68.5652
145.0575,68.5955
145.0331,68.6231
145.0024,68.6452
144.9922,68.6508
144.9780,68.6572
144.9638,68.6608
144.9458,68.6624
144.9203,68.6627
144.8692,68.6627
144.8802,68.6993
144.8860,68.7168
144.8965,68.7440
144.9071,68.7675
144.9106,68.7742
144.9216,68.7908
144.9343,68.8006
144.9519,68.8052
144.9774,68.8063
144.9892,68.8057
145.0041,68.8024
145.0192,68.7949
145.0370,68.7819
145.0601,68.7620
145.0737,68.7503
145.0971,68.7335
145.1172,68.7249
145.1361,68.7237
145.1559,68.7294
145.1575,68.7300
145.1784,68.7443
145.1918,68.7658
145.1983,68.7956
145.2010,68.8236
145.1549,68.8685
145.1313,68.8907
145.1066,68.9109
145.0837,68.9254
145.0598,68.9360
145.0319,68.9443
145.0202,68.9468
144.9805,68.9505
144.9383,68.9481
144.8971,68.9402
144.8599,68.9275
144.8300,68.9103
144.8286,68.9092
144.8142,68.8929
144.7982,68.8672
144.7811,68.8335
144.7636,68.7934
144.7465,68.7482
144.7305,68.6993
144.7290,68.6944
144.7175,68.6590
144.7048,68.6224
144.6922,68.5885
144.6813,68.5614
144.6692,68.5310
144.6582,68.4923
144.6552,68.4607
144.6605,68.4357
144.6739,68.4168
144.6955,68.4034
144.6975,68.4026
144.7170,68.3961
144.7335,68.3952
144.7496,68.4006
144.7677,68.4132
144.7905,68.4336
144.7936,68.4366
144.8283,68.4681
144.8573,68.4915
144.8817,68.5073
144.9026,68.5163
144.9209,68.5191
144.9269,68.5183
144.9362,68.5099
144.9402,68.4924
144.9391,68.4652
144.9387,68.4625
144.9331,68.4424
144.9219,68.4289
144.9215,68.4286
144.9049,68.4092
144.8973,68.3867
144.8979,68.3633
144.9060,68.3412
144.9208,68.3227
144.9414,68.3099
144.9669,68.3052
Z" /> 
<path style="fill:#000000; fill-opacity:1.0000; stroke:none;fill-rule:evenodd;"
d="M 145.4404,68.6721
145.4371,68.7154
145.4327,68.7600
145.4274,68.8037
145.4215,68.8445
145.4152,68.8803
145.4087,68.9089
145.4023,68.9284
145.3938,68.9458
145.3724,68.9817
145.3445,69.0221
145.3117,69.0652
145.2752,69.1092
145.2367,69.1524
145.1975,69.1931
145.1591,69.2296
145.1229,69.2601
145.0954,69.2801
145.0554,69.3057
145.0120,69.3306
144.9691,69.3527
144.9307,69.3696
144.9218,69.3733
144.9006,69.3825
144.8733,69.3946
144.8426,69.4087
144.8110,69.4235
144.7796,69.4377
144.7390,69.4551
144.6945,69.4733
144.6497,69.4909
144.6083,69.5064
144.6017,69.5088
144.5642,69.5226
144.5277,69.5364
144.4945,69.5492
144.4671,69.5601
144.4478,69.5681
144.4446,69.5696
144.4176,69.5804
144.3896,69.5904
144.3662,69.5975
144.3610,69.5989
144.3396,69.6055
144.3116,69.6148
144.2803,69.6258
144.2487,69.6375
144.1984,69.6558
144.1456,69.6729
144.0962,69.6860
144.0468,69.6961
143.9938,69.7040
143.9658,69.7080
143.9342,69.7134
143.9061,69.7191
143.8854,69.7243
143.8473,69.7357
143.8140,69.7460
143.7876,69.7546
143.7659,69.7621
143.7468,69.7693
143.7286,69.7759
143.7020,69.7845
143.6764,69.7919
143.6672,69.7942
143.6095,69.8018
143.5486,69.7992
143.4853,69.7866
143.4206,69.7640
143.3555,69.7318
143.3550,69.7315
143.3249,69.7141
143.2991,69.6982
143.2766,69.6826
143.2566,69.6662
143.2380,69.6478
143.2198,69.6264
143.2012,69.6008
143.1811,69.5698
143.1585,69.5324
143.1325,69.4873
143.1021,69.4334
143.0781,69.3888
143.0447,69.3190
143.0177,69.2501
142.9959,69.1786
142.9777,69.1005
142.9723,69.0723
142.9683,69.0475
142.9658,69.0235
142.9643,68.9973
142.9637,68.9658
142.9636,68.9261
142.9637,68.9232
142.9642,68.8804
142.9654,68.8460
142.9664,68.8347
143.1162,68.8347
143.1162,68.9261
143.1177,68.9848
143.1228,69.0407
143.1322,69.0951
143.1465,69.1516
143.1663,69.2138
143.1782,69.2448
143.1946,69.2815
143.2144,69.3216
143.2364,69.3634
143.2597,69.4052
143.2833,69.4453
143.3063,69.4818
143.3277,69.5133
143.3464,69.5378
143.3616,69.5538
143.3618,69.5540
143.3886,69.5737
143.4226,69.5940
143.4600,69.6130
143.4972,69.6289
143.5303,69.6397
143.5430,69.6428
143.5696,69.6479
143.5940,69.6497
143.6185,69.6478
143.6458,69.6422
143.6784,69.6323
143.7186,69.6180
143.7269,69.6150
143.7685,69.6013
143.8148,69.5877
143.8620,69.5753
143.9063,69.5651
143.9439,69.5581
143.9742,69.5535
144.0162,69.5466
144.0510,69.5402
144.0809,69.5336
144.1083,69.5262
144.1357,69.5175
144.1655,69.5068
144.2001,69.4934
144.2123,69.4887
144.2448,69.4768
144.2782,69.4654
144.3067,69.4563
144.3116,69.4548
144.3417,69.4449
144.3731,69.4336
144.3996,69.4230
144.4014,69.4222
144.4212,69.4142
144.4488,69.4035
144.4819,69.3909
144.5181,69.3774
144.5548,69.3639
144.5889,69.3512
144.6343,69.3333
144.6805,69.3143
144.7238,69.2957
144.7603,69.2792
144.7876,69.2665
144.8160,69.2534
144.8400,69.2427
144.8578,69.2350
144.8673,69.2314
144.8803,69.2265
144.9026,69.2160
144.9294,69.2019
144.9583,69.1856
144.9866,69.1686
145.0117,69.1524
145.0310,69.1384
145.0531,69.1197
145.0818,69.0926
145.1121,69.0618
145.1426,69.0286
145.1722,68.9944
145.1998,68.9608
145.2239,68.9292
145.2435,68.9009
145.2574,68.8775
145.2642,68.8605
145.2650,68.8562
145.2673,68.8412
145.2706,68.8186
145.2744,68.7905
145.2786,68.7592
145.2812,68.7379
145.2871,68.6805
145.2898,68.6322
145.2891,68.5917
145.2852,68.5579
145.2780,68.5294
145.2674,68.5007
145.2474,68.4549
145.2236,68.4083
145.1974,68.3626
145.1698,68.3199
145.1421,68.2821
145.1155,68.2511
145.0913,68.2289
145.0772,68.2180
145.0539,68.1991
145.0330,68.1813
145.0069,68.1598
144.9732,68.1346
144.9373,68.1100
144.9027,68.0882
144.8730,68.0717
144.8671,68.0688
144.8495,68.0603
144.8331,68.0534
144.8168,68.0478
144.7993,68.0434
144.7794,68.0402
144.7558,68.0379
144.7272,68.0364
144.6923,68.0357
144.6500,68.0355
144.5990,68.0357
144.5379,68.0363
144.3127,68.0385
144.1972,68.0593
144.1373,68.0708
144.0641,68.0866
143.9985,68.1030
143.9415,68.1197
143.8945,68.1364
143.8755,68.1445
143.8451,68.1587
143.8102,68.1758
143.7738,68.1944
143.7388,68.2130
143.7082,68.2300
143.6849,68.2439
143.6772,68.2487
143.6556,68.2617
143.6362,68.2727
143.6316,68.2753
143.6106,68.2882
143.5911,68.3014
143.5853,68.3056
143.5686,68.3167
143.5457,68.3315
143.5190,68.3485
143.4906,68.3663
143.4749,68.3761
143.4468,68.3938
143.4215,68.4101
143.4012,68.4235
143.3882,68.4324
143.3761,68.4403
143.3535,68.4524
143.3306,68.4622
143.3191,68.4667
143.3045,68.4741
143.2911,68.4841
143.2761,68.4988
143.2569,68.5204
143.2426,68.5371
143.2166,68.5695
143.1977,68.5966
143.1850,68.6196
143.1775,68.6399
143.1759,68.6456
143.1706,68.6634
143.1630,68.6882
143.1538,68.7175
143.1438,68.7487
143.1162,68.8347
142.9664,68.8347
142.9679,68.8173
142.9720,68.7916
142.9780,68.7662
142.9865,68.7384
142.9979,68.7054
143.0042,68.6871
143.0135,68.6583
143.0212,68.6319
143.0261,68.6120
143.0305,68.5937
143.0435,68.5586
143.0631,68.5224
143.0906,68.4825
143.0956,68.4759
143.1313,68.4322
143.1672,68.3936
143.2017,68.3618
143.2331,68.3384
143.2472,68.3292
143.2699,68.3133
143.2974,68.2936
143.3273,68.2718
143.3573,68.2493
143.3841,68.2292
143.4121,68.2082
143.4371,68.1897
143.4570,68.1750
143.4700,68.1656
143.4859,68.1558
143.5080,68.1453
143.5301,68.1373
143.5491,68.1330
143.5616,68.1334
143.5632,68.1335
143.5737,68.1303
143.5898,68.1224
143.6089,68.1110
143.6151,68.1070
143.6328,68.0961
143.6462,68.0885
143.6526,68.0856
143.6544,68.0851
143.6644,68.0803
143.6806,68.0717
143.7005,68.0606
143.7703,68.0246
143.8552,67.9898
143.9497,67.9593
144.0541,67.9331
144.1688,67.9109
144.2006,67.9056
144.2394,67.8994
144.2729,67.8943
144.3031,67.8903
144.3316,67.8873
144.3605,67.8852
144.3914,67.8837
144.4263,67.8829
144.4669,67.8825
144.5152,67.8824
144.5729,67.8825
144.5920,67.8826
144.6438,67.8828
144.6861,67.8830
144.7202,67.8835
144.7475,67.8841
144.7692,67.8851
144.7868,67.8864
144.8016,67.8882
144.8148,67.8905
144.8279,67.8933
144.8421,67.8968
144.8745,67.9066
144.9335,67.9312
144.9958,67.9653
145.0603,68.0084
145.1263,68.0600
145.1279,68.0613
145.1500,68.0795
145.1730,68.0981
145.1921,68.1133
145.2078,68.1265
145.2420,68.1617
145.2766,68.2050
145.3106,68.2544
145.3429,68.3082
145.3725,68.3641
145.3982,68.4204
145.4191,68.4749
145.4339,68.5258
145.4417,68.5711
145.4429,68.5974
145.4425,68.6320
145.4424,68.6322
Z" /> 
<path style="fill:#000000; fill-opacity:1.0000; stroke:none;fill-rule:evenodd;"
d="M 146.9092,70.9334
146.9033,70.9928
146.8939,71.0444
146.8810,71.0867
146.8740,71.1031
146.8630,71.1269
146.8498,71.1544
146.8359,71.1823
146.8339,71.1863
146.8223,71.2084
146.8121,71.2263
146.8017,71.2418
146.7895,71.2570
146.7739,71.2739
146.7533,71.2945
146.7262,71.3209
146.6934,71.3522
146.6555,71.3876
146.6209,71.4189
146.5867,71.4482
146.5505,71.4779
146.5097,71.5103
146.4999,71.5181
146.4605,71.5498
146.4204,71.5832
146.3818,71.6162
146.3473,71.6467
146.3194,71.6726
146.3152,71.6764
146.2953,71.6914
146.2661,71.7100
146.2272,71.7326
146.1782,71.7594
146.1649,71.7665
146.1300,71.7856
146.0970,71.8040
146.0681,71.8206
146.0451,71.8342
146.0300,71.8438
146.0006,71.8637
145.9661,71.8855
145.9308,71.9058
145.8924,71.9259
145.8483,71.9472
145.7961,71.9710
145.7903,71.9736
145.7520,71.9911
145.7133,72.0093
145.6770,72.0269
145.6456,72.0426
145.6219,72.0551
145.5696,72.0821
145.4943,72.1158
145.4104,72.1485
145.3195,72.1797
145.2230,72.2090
145.1223,72.2358
145.0191,72.2598
144.9147,72.2803
144.8934,72.2842
144.8580,72.2905
144.8271,72.2962
144.8022,72.3007
144.7850,72.3039
144.7772,72.3054
144.7722,72.3062
144.7530,72.3064
144.7238,72.3046
144.6853,72.3010
144.6383,72.2955
144.5835,72.2883
144.5216,72.2795
144.4534,72.2691
144.4116,72.2622
144.3745,72.2554
144.3454,72.2488
144.3225,72.2423
144.3042,72.2353
144.3022,72.2344
144.2734,72.2207
144.2409,72.2037
144.2075,72.1850
144.1760,72.1663
144.1491,72.1491
144.1297,72.1350
144.1096,72.1183
144.0846,72.0966
144.0576,72.0725
144.0301,72.0473
144.0036,72.0226
143.9796,71.9996
143.9595,71.9798
143.9450,71.9646
143.9374,71.9554
143.9337,71.9500
143.9223,71.9355
143.9058,71.9157
143.8858,71.8926
143.8639,71.8679
143.8504,71.8527
143.8191,71.8149
143.7924,71.7792
143.7723,71.7483
143.7699,71.7441
143.7538,71.7153
143.7341,71.6786
143.7117,71.6361
143.6876,71.5895
143.6629,71.5411
143.6384,71.4925
143.6153,71.4459
143.5945,71.4032
143.5769,71.3664
143.5637,71.3373
143.5582,71.3249
143.5442,71.2942
143.5269,71.2573
143.5077,71.2167
143.4876,71.1749
143.4680,71.1346
143.4564,71.1109
143.4376,71.0719
143.4197,71.0343
143.4037,71.0003
143.3908,70.9720
143.3818,70.9516
143.3770,70.9406
143.3665,70.9166
143.3525,70.8852
143.3357,70.8479
143.3170,70.8065
143.2970,70.7626
143.2765,70.7179
143.2625,70.6873
143.2424,70.6435
143.2234,70.6019
143.2061,70.5641
143.1913,70.5318
143.1798,70.5065
143.1722,70.4899
143.1707,70.4863
143.1626,70.4662
143.1519,70.4376
143.1392,70.4025
143.1253,70.3626
143.1107,70.3198
143.0961,70.2759
143.0818,70.2330
143.0636,70.1791
143.0444,70.1235
143.0254,70.0692
143.0077,70.0195
142.9923,69.9775
142.9819,69.9496
142.9690,69.9143
142.9577,69.8830
142.9485,69.8573
142.9422,69.8388
142.9392,69.8292
142.9357,69.8193
142.9280,69.8012
142.9169,69.7768
142.9035,69.7479
142.8884,69.7166
142.8738,69.6861
142.8598,69.6559
142.8481,69.6296
142.8396,69.6092
142.8351,69.5968
142.8308,69.5842
142.8220,69.5635
142.8105,69.5385
142.7976,69.5123
142.7814,69.4800
142.7584,69.4316
142.7348,69.3799
142.7113,69.3263
142.6886,69.2723
142.6671,69.2195
142.6476,69.1693
142.6306,69.1233
142.6167,69.0829
142.6066,69.0496
142.6008,69.0249
142.5994,69.0172
142.5939,68.9878
142.5882,68.9589
142.5832,68.9358
142.5819,68.9298
142.5785,68.9047
142.5757,68.8696
142.5736,68.8240
142.5721,68.7677
142.5715,68.7136
142.7247,68.7136
142.7254,68.7558
142.7274,68.8012
142.7306,68.8475
142.7350,68.8927
142.7404,68.9344
142.7466,68.9706
142.7471,68.9729
142.7576,69.0142
142.7732,69.0637
142.7934,69.1200
142.8176,69.1819
142.8453,69.2478
142.8760,69.3164
142.9090,69.3863
142.9254,69.4207
142.9425,69.4576
142.9583,69.4928
142.9716,69.5234
142.9810,69.5467
142.9848,69.5564
142.9969,69.5850
143.0120,69.6187
143.0285,69.6541
143.0449,69.6877
143.0542,69.7065
143.0682,69.7362
143.0801,69.7631
143.0888,69.7848
143.0933,69.7988
143.0933,69.7989
143.0973,69.8125
143.1046,69.8344
143.1146,69.8624
143.1264,69.8943
143.1393,69.9281
143.1515,69.9598
143.1648,69.9953
143.1767,70.0283
143.1864,70.0560
143.1929,70.0760
143.1975,70.0913
143.2260,70.1828
143.2535,70.2656
143.2797,70.3392
143.3046,70.4029
143.3278,70.4561
143.3344,70.4703
143.3515,70.5075
143.3713,70.5508
143.3930,70.5983
143.4157,70.6484
143.4385,70.6990
143.4608,70.7486
143.4816,70.7951
143.5002,70.8368
143.5157,70.8719
143.5273,70.8987
143.5291,70.9029
143.5408,70.9290
143.5560,70.9620
143.5736,70.9993
143.5922,71.0382
143.6106,71.0760
143.6120,71.0789
143.6315,71.1191
143.6521,71.1621
143.6721,71.2046
143.6902,71.2434
143.7047,71.2753
143.7102,71.2876
143.7325,71.3354
143.7592,71.3903
143.7892,71.4502
143.8213,71.5129
143.8547,71.5764
143.8881,71.6385
143.8921,71.6458
143.9121,71.6802
143.9315,71.7091
143.9533,71.7368
143.9805,71.7675
143.9846,71.7719
144.0058,71.7955
144.0254,71.8181
144.0412,71.8371
144.0513,71.8504
144.0543,71.8544
144.0691,71.8713
144.0904,71.8929
144.1165,71.9178
144.1457,71.9443
144.1761,71.9710
144.2060,71.9962
144.2336,72.0184
144.2571,72.0359
144.2748,72.0474
144.2756,72.0478
144.3016,72.0619
144.3250,72.0738
144.3473,72.0840
144.3697,72.0927
144.3937,72.1003
144.4207,72.1072
144.4520,72.1137
144.4890,72.1201
144.5330,72.1269
144.5854,72.1343
144.6477,72.1427
144.6782,72.1463
144.7134,72.1491
144.7463,72.1493
144.7803,72.1469
144.8186,72.1417
144.8645,72.1336
144.8696,72.1326
144.9669,72.1128
145.0619,72.0908
145.1537,72.0669
145.2409,72.0416
145.3226,72.0153
145.3976,71.9882
145.4647,71.9607
145.5228,71.9333
145.5708,71.9062
145.5728,71.9051
145.5862,71.8980
145.6076,71.8875
145.6350,71.8745
145.6667,71.8599
145.7006,71.8445
145.7586,71.8181
145.8089,71.7943
145.8506,71.7734
145.8847,71.7549
145.9123,71.7382
145.9343,71.7229
145.9408,71.7183
145.9588,71.7069
145.9839,71.6919
146.0142,71.6742
146.0480,71.6551
146.0835,71.6354
146.1145,71.6183
146.1581,71.5933
146.1925,71.5722
146.2184,71.5546
146.2364,71.5400
146.2549,71.5235
146.2797,71.5022
146.3026,71.4837
146.3063,71.4807
146.3219,71.4678
146.3328,71.4578
146.3369,71.4527
146.3370,71.4524
146.3425,71.4467
146.3551,71.4360
146.3730,71.4215
146.3946,71.4047
146.4142,71.3897
146.4453,71.3653
146.4733,71.3425
146.5005,71.3194
146.5289,71.2941
146.5609,71.2646
146.5987,71.2292
146.6091,71.2194
146.6341,71.1955
146.6530,71.1767
146.6673,71.1610
146.6786,71.1465
146.6884,71.1314
146.6983,71.1136
146.7099,71.0912
146.7260,71.0569
146.7417,71.0145
146.7519,70.9715
146.7575,70.9246
146.7592,70.8702
146.7592,70.8677
146.7584,70.8373
146.7558,70.8116
146.7505,70.7856
146.7419,70.7541
146.7384,70.7430
146.7206,70.6936
146.6969,70.6384
146.6687,70.5797
146.6369,70.5198
146.6029,70.4609
146.5677,70.4054
146.5676,70.4054
146.5530,70.3833
146.5335,70.3534
146.5100,70.3174
146.4838,70.2769
146.4558,70.2337
146.4272,70.1894
146.3991,70.1457
146.3725,70.1043
146.3486,70.0668
146.3283,70.0350
146.3129,70.0106
146.3012,69.9914
146.2808,69.9568
146.2606,69.9211
146.2435,69.8895
146.2366,69.8766
146.2225,69.8511
146.2043,69.8187
146.1828,69.7812
146.1591,69.7400
146.1340,69.6969
146.1086,69.6535
146.0867,69.6159
146.0562,69.5627
146.0232,69.5042
145.9890,69.4429
145.9551,69.3813
145.9228,69.3221
145.8937,69.2677
145.8903,69.2613
145.8633,69.2111
145.8355,69.1601
145.8077,69.1100
145.7810,69.0627
145.7565,69.0200
145.7351,68.9837
145.7179,68.9555
145.6723,68.8826
145.6238,68.8036
145.5808,68.7315
145.5426,68.6651
145.5085,68.6034
145.4780,68.5450
145.4503,68.4890
145.4498,68.4881
145.4201,68.4272
145.3881,68.3635
145.3546,68.2982
145.3202,68.2324
145.2854,68.1674
145.2511,68.1043
145.2177,68.0442
145.1860,67.9885
145.1566,67.9381
145.1302,67.8944
145.1073,67.8584
145.0887,67.8315
145.0820,67.8226
145.0732,67.8123
145.0632,67.8033
145.0503,67.7942
145.0326,67.7838
145.0084,67.7709
144.9759,67.7543
144.9440,67.7385
144.9010,67.7188
144.8643,67.7044
144.8321,67.6950
144.8025,67.6900
144.7738,67.6888
144.7440,67.6911
144.7244,67.6930
144.6928,67.6951
144.6582,67.6966
144.6252,67.6972
144.6251,67.6972
144.5914,67.6981
144.5514,67.7004
144.5104,67.7037
144.4731,67.7077
144.4532,67.7103
144.4251,67.7144
144.4045,67.7183
144.3889,67.7227
144.3760,67.7282
144.3634,67.7354
144.3614,67.7365
144.3438,67.7450
144.3189,67.7551
144.2897,67.7656
144.2592,67.7753
144.2584,67.7756
144.2284,67.7849
144.1912,67.7972
144.1500,67.8114
144.1077,67.8263
144.0677,67.8410
144.0270,67.8557
143.9772,67.8726
143.9247,67.8898
143.8735,67.9058
143.8278,67.9192
143.8040,67.9260
143.7614,67.9386
143.7270,67.9498
143.6988,67.9601
143.6748,67.9703
143.6533,67.9810
143.6461,67.9848
143.6152,68.0003
143.5820,68.0161
143.5525,68.0292
143.5435,68.0330
143.5158,68.0449
143.4891,68.0565
143.4681,68.0659
143.4521,68.0727
143.4268,68.0831
143.3976,68.0945
143.3683,68.1057
143.3456,68.1147
143.3118,68.1294
143.2794,68.1450
143.2529,68.1593
143.2324,68.1712
143.2018,68.1885
143.1692,68.2067
143.1387,68.2234
143.0888,68.2505
143.0424,68.2757
143.0039,68.2968
142.9723,68.3145
142.9466,68.3293
142.9256,68.3420
142.9083,68.3532
142.8938,68.3636
142.8809,68.3737
142.8686,68.3844
142.8559,68.3961
142.8417,68.4097
142.8340,68.4171
142.8143,68.4365
142.7984,68.4527
142.7878,68.4643
142.7839,68.4697
142.7839,68.4699
142.7815,68.4774
142.7755,68.4920
142.7671,68.5105
142.7589,68.5297
142.7500,68.5537
142.7441,68.5736
142.7412,68.5859
142.7356,68.6105
142.7301,68.6346
142.7279,68.6477
142.7255,68.6769
142.7247,68.7136
142.5715,68.7136
142.5715,68.7105
142.5722,68.6600
142.5750,68.6158
142.5803,68.5758
142.5887,68.5383
142.6007,68.5012
142.6168,68.4625
142.6376,68.4204
142.6636,68.3728
142.6954,68.3179
142.7093,68.2946
142.7331,68.2576
142.7558,68.2271
142.7797,68.2007
142.8071,68.1761
142.8400,68.1511
142.8808,68.1231
142.8861,68.1196
142.9116,68.1030
142.9358,68.0879
142.9599,68.0736
142.9852,68.0593
143.0131,68.0446
143.0449,68.0285
143.0817,68.0107
143.1250,67.9902
143.1759,67.9665
143.2359,67.9389
143.2433,67.9355
143.2877,67.9150
143.3293,67.8958
143.3668,67.8783
143.3989,67.8632
143.4245,67.8510
143.4424,67.8424
143.4512,67.8378
143.4556,67.8354
143.4755,67.8258
143.5044,67.8135
143.5410,67.7989
143.5839,67.7823
143.6318,67.7644
143.6835,67.7456
143.7376,67.7264
143.7929,67.7073
143.8480,67.6886
143.9015,67.6710
143.9523,67.6548
143.9697,67.6496
144.0003,67.6409
144.0350,67.6315
144.0719,67.6218
144.1092,67.6123
144.1450,67.6035
144.1775,67.5959
144.2047,67.5898
144.2247,67.5859
144.2358,67.5844
144.2453,67.5821
144.2614,67.5761
144.2806,67.5676
144.2854,67.5654
144.3204,67.5520
144.3632,67.5391
144.4122,67.5270
144.4655,67.5159
144.5216,67.5061
144.5787,67.4977
144.6351,67.4911
144.6891,67.4863
144.7391,67.4838
144.7834,67.4836
144.8202,67.4861
144.8479,67.4913
144.8573,67.4938
144.8750,67.4968
144.8872,67.4966
144.8916,67.4960
144.9093,67.4971
144.9332,67.5016
144.9602,67.5088
144.9872,67.5179
145.0112,67.5280
145.0245,67.5352
145.0403,67.5461
145.0574,67.5607
145.0778,67.5809
145.1033,67.6082
145.1117,67.6173
145.1333,67.6411
145.1532,67.6627
145.1692,67.6802
145.1795,67.6914
145.1920,67.7065
145.2113,67.7334
145.2346,67.7689
145.2613,67.8118
145.2910,67.8614
145.3231,67.9167
145.3570,67.9768
145.3923,68.0408
145.4285,68.1078
145.4651,68.1768
145.5014,68.2469
145.5370,68.3172
145.5715,68.3868
145.5774,68.3989
145.6080,68.4599
145.6392,68.5196
145.6721,68.5797
145.7075,68.6421
145.7466,68.7084
145.7903,68.7804
145.8396,68.8598
145.8408,68.8617
145.8677,68.9060
145.8983,68.9579
145.9313,69.0154
145.9653,69.0760
145.9991,69.1375
146.0313,69.1976
146.0501,69.2330
146.0810,69.2900
146.1140,69.3501
146.1476,69.4107
146.1805,69.4691
146.2112,69.5228
146.2382,69.5691
146.2518,69.5924
146.2773,69.6361
146.3022,69.6791
146.3254,69.7197
146.3459,69.7559
146.3627,69.7861
146.3748,69.8084
146.3826,69.8230
146.4014,69.8559
146.4262,69.8974
146.4567,69.9473
146.4928,70.0052
146.5343,70.0708
146.5808,70.1436
146.6322,70.2234
146.6882,70.3097
146.7314,70.3784
146.7736,70.4512
146.8112,70.5222
146.8435,70.5899
146.8697,70.6525
146.8889,70.7085
146.8921,70.7192
146.8999,70.7466
146.9053,70.7684
146.9086,70.7879
146.9104,70.8085
146.9111,70.8336
146.9112,70.8666
146.9112,70.8677
146.9112,70.8702
Z" /> 
<path style="fill:#000000; fill-opacity:1.0000; stroke:none;fill-rule:evenodd;"
d="M 124.8790,73.7490
124.8810,73.7417
124.8884,73.7396
Z" /> 
<path style="fill:#000000; fill-opacity:1.0000; stroke:none;fill-rule:evenodd;"
d="M 126.0626,72.3950
126.0413,72.4163
126.0200,72.3950
126.0413,72.3737
Z" /> 
<path style="fill:#000000; fill-opacity:1.0000; stroke:none;fill-rule:evenodd;"
d="M 125.9347,72.2671
125.9134,72.2884
125.8921,72.2671
125.9134,72.2458
Z" /> 
<path style="fill:#000000; fill-opacity:1.0000; stroke:none;fill-rule:evenodd;"
d="M 125.9347,73.3752
125.9134,73.3965
125.8921,73.3752
125.9134,73.3539
Z" /> 
<path style="fill:#000000; fill-opacity:1.0000; stroke:none;fill-rule:evenodd;"
d="M 125.8921,73.5883
125.8708,73.6096
125.8495,73.5883
125.8708,73.5669
Z" /> 
<path style="fill:#000000; fill-opacity:1.0000; stroke:none;fill-rule:evenodd;"
d="M 125.8495,73.6735
125.8282,73.6948
125.8069,73.6735
125.8282,73.6522
Z" /> 
<path style="fill:#000000; fill-opacity:1.0000; stroke:none;fill-rule:evenodd;"
d="M 125.4233,74.0997
125.4020,74.1210
125.3807,74.0997
125.4020,74.0784
Z" /> 
<path style="fill:#000000; fill-opacity:1.0000; stroke:none;fill-rule:evenodd;"
d="M 125.3381,74.0570
125.3168,74.0784
125.2955,74.0570
125.3168,74.0357
Z" /> 
<path style="fill:#000000; fill-opacity:1.0000; stroke:none;fill-rule:evenodd;"
d="M 125.2102,73.0342
125.1889,73.0555
125.1676,73.0342
125.1889,73.0129
Z" /> 
<path style="fill:#000000; fill-opacity:1.0000; stroke:none;fill-rule:evenodd;"
d="M 124.4005,73.3325
124.3792,73.3539
124.3579,73.3325
124.3792,73.3112
Z" /> 
<path style="fill:#000000; fill-opacity:1.0000; stroke:none;fill-rule:evenodd;"
d="M 124.4005,73.5030
124.3792,73.5243
124.3579,73.5030
124.3792,73.4817
Z" /> 
<path style="fill:#000000; fill-opacity:1.0000; stroke:none;fill-rule:evenodd;"
d="M 124.4005,74.0144
124.3792,74.0357
124.3579,74.0144
124.3792,73.9931
Z" /> 
<path style="fill:#000000; fill-opacity:1.0000; stroke:none;fill-rule:evenodd;"
d="M 124.3579,73.2473
124.3366,73.2686
124.3153,73.2473
124.3366,73.2260
Z" /> 
<path style="fill:#000000; fill-opacity:1.0000; stroke:none;fill-rule:evenodd;"
d="M 124.3153,73.4178
124.2939,73.4391
124.2726,73.4178
124.2939,73.3965
Z" /> 
<path style="fill:#000000; fill-opacity:1.0000; stroke:none;fill-rule:evenodd;"
d="M 124.2300,73.8866
124.2087,73.9079
124.1874,73.8866
124.2087,73.8653
Z" /> 
<path style="fill:#000000; fill-opacity:1.0000; stroke:none;fill-rule:evenodd;"
d="M 124.2300,74.0144
124.2087,74.0357
124.1874,74.0144
124.2087,73.9931
Z" /> 
<path style="fill:#000000; fill-opacity:1.0000; stroke:none;fill-rule:evenodd;"
d="M 124.1448,73.3325
124.1235,73.3539
124.1022,73.3325
124.1235,73.3112
Z" /> 
<path style="fill:#000000; fill-opacity:1.0000; stroke:none;fill-rule:evenodd;"
d="M 123.7612,73.5883
123.7399,73.6096
123.7186,73.5883
123.7399,73.5669
Z" /> 
<path style="fill:#000000; fill-opacity:1.0000; stroke:none;fill-rule:evenodd;"
d="M 133.4434,71.5348
133.4631,71.5502
133.4176,71.5606
133.3744,71.5575
133.3617,71.5382
133.3768,71.5297
Z" /> 
<path style="fill:#000000; fill-opacity:1.0000; stroke:none;fill-rule:evenodd;"
d="M 120.9386,69.3988
120.9059,69.4331
120.8673,69.4569
120.8269,69.4714
120.8419,69.4331
120.8511,69.4214
120.9190,69.3911
Z" /> 
<path style="fill:#000000; fill-opacity:1.0000; stroke:none;fill-rule:evenodd;"
d="M 120.7990,69.2631
120.7907,69.2742
120.7329,69.3052
120.7090,69.3030
120.6989,69.2807
120.7589,69.2463
120.7922,69.2389
Z" /> 
<path style="fill:#000000; fill-opacity:1.0000; stroke:none;fill-rule:evenodd;"
d="M 124.4820,74.0654
124.4588,74.0867
124.4916,74.1294
124.5262,74.1583
124.4932,74.1551
124.4561,74.1352
124.4395,74.0855
124.4836,74.0507
124.5038,74.0487
Z" /> 
<path style="fill:#000000; fill-opacity:1.0000; stroke:none;fill-rule:evenodd;"
d="M 133.6410,71.5985
133.7337,71.6101
133.7460,71.6208
133.6923,71.6312
133.5712,71.6376
133.3928,71.6391
132.9453,71.6363
133.2862,71.6073
133.3182,71.6048
133.4927,71.5966
Z" /> 
<path style="fill:#000000; fill-opacity:1.0000; stroke:none;fill-rule:evenodd;"
d="M 132.2845,71.2812
132.4126,71.3082
132.4473,71.3198
132.4797,71.3374
132.4339,71.3415
132.3424,71.3324
132.2208,71.3082
132.1476,71.2883
132.1356,71.2776
132.1995,71.2749
Z" /> 
<path style="fill:#000000; fill-opacity:1.0000; stroke:none;fill-rule:evenodd;"
d="M 132.7651,71.5758
132.7789,71.5777
132.7903,71.5854
132.7288,71.5907
132.6043,71.5926
132.5679,71.5924
132.4630,71.5893
132.4265,71.5833
132.4668,71.5754
132.4725,71.5749
132.6242,71.5686
Z" /> 
<path style="fill:#000000; fill-opacity:1.0000; stroke:none;fill-rule:evenodd;"
d="M 125.2865,73.0662
125.2494,73.1301
125.2409,73.1439
125.1966,73.2103
125.1735,73.2115
125.1486,73.1527
125.1379,73.1155
125.1508,73.1097
125.1793,73.1175
125.2451,73.0871
125.2752,73.0635
Z" /> 
<path style="fill:#000000; fill-opacity:1.0000; stroke:none;fill-rule:evenodd;"
d="M 132.6896,71.3762
132.7603,71.3869
132.9262,71.4187
133.0944,71.4575
133.1586,71.4741
133.2364,71.4970
133.2354,71.5036
133.1584,71.4959
133.0876,71.4853
132.9217,71.4535
132.7535,71.4147
132.6894,71.3980
132.6116,71.3752
132.6126,71.3685
Z" /> 
<path style="fill:#000000; fill-opacity:1.0000; stroke:none;fill-rule:evenodd;"
d="M 127.8105,71.6936
127.7952,71.8156
127.7298,71.9995
127.7111,72.0393
127.6185,72.1930
127.5134,72.3227
127.4584,72.3755
127.3675,72.4438
127.3088,72.4481
127.2700,72.3918
127.2694,72.3900
127.2647,72.2712
127.3134,72.1173
127.4056,71.9504
127.5320,71.7924
127.5900,71.7352
127.7046,71.6499
127.7792,71.6372
Z" /> 
<path style="fill:#000000; fill-opacity:1.0000; stroke:none;fill-rule:evenodd;"
d="M 121.1108,69.4057
121.1413,69.4737
121.1362,69.5666
121.0930,69.6513
121.0090,69.7047
120.8991,69.7232
120.7998,69.7035
120.7440,69.6461
120.7431,69.6431
120.7400,69.6053
120.7812,69.6355
120.7835,69.6376
120.8798,69.6865
120.9804,69.6824
121.0628,69.6372
121.1048,69.5632
121.0841,69.4722
121.0607,69.4198
121.0731,69.3904
Z" /> 
<path style="fill:#000000; fill-opacity:1.0000; stroke:none;fill-rule:evenodd;"
d="M 126.3963,71.4110
126.3966,71.4112
126.5701,71.5470
126.6843,71.7418
126.7362,71.9904
126.7409,72.1201
126.7262,72.2305
126.6845,72.2997
126.6610,72.3196
126.5591,72.3483
126.4466,72.3100
126.3350,72.2163
126.2355,72.0789
126.1595,71.9092
126.1182,71.7189
126.1162,71.6994
126.1107,71.5672
126.1304,71.4848
126.1818,71.4223
126.2427,71.3756
126.3034,71.3701
Z" /> 
<path style="fill:#000000; fill-opacity:1.0000; stroke:none;fill-rule:evenodd;"
d="M 125.3640,72.3416
125.3341,72.3744
125.2340,72.4389
125.0591,72.5348
124.9362,72.6006
124.6223,72.7892
124.3652,72.9812
124.1448,73.1911
124.0748,73.2635
123.9904,73.3355
123.9452,73.3444
123.9317,73.2937
123.9508,73.2418
124.0306,73.1423
124.1599,73.0197
124.3244,72.8854
124.5103,72.7505
124.7033,72.6265
124.8894,72.5245
125.0781,72.4359
125.2314,72.3720
125.3282,72.3407
Z" /> 
<path style="fill:#000000; fill-opacity:1.0000; stroke:none;fill-rule:evenodd;"
d="M 124.0364,74.1665
124.0130,74.1918
123.9591,74.2027
123.9317,74.1611
123.9295,74.1473
123.8935,74.1395
123.8742,74.1441
123.8338,74.1068
123.8326,74.0811
123.9421,74.0811
123.9530,74.1210
123.9618,74.1336
124.0007,74.1636
124.0065,74.1608
123.9956,74.1210
123.9869,74.1084
123.9480,74.0784
123.9421,74.0811
123.8326,74.0811
123.8323,74.0757
123.8834,74.0558
123.9608,74.0720
124.0290,74.1149
124.0356,74.1608
Z" /> 
<path style="fill:#000000; fill-opacity:1.0000; stroke:none;fill-rule:evenodd;"
d="M 122.3953,73.0376
122.4525,73.1408
122.4590,73.1537
122.5599,73.3004
122.6977,73.4027
122.8875,73.4686
123.1448,73.5064
123.1821,73.5098
123.3875,73.5353
123.5247,73.5725
123.6088,73.6308
123.6544,73.7198
123.6766,73.8492
123.6870,73.9253
123.7172,74.0533
123.7532,74.1326
123.7767,74.1575
123.9118,74.2464
124.0874,74.3098
124.2684,74.3341
124.3383,74.3304
124.4232,74.3083
124.4439,74.2735
124.3898,74.2344
124.3620,74.2199
124.3873,74.2096
124.4027,74.2104
124.4644,74.2488
124.4731,74.2603
124.5334,74.2914
124.5493,74.2861
124.5456,74.2422
124.5354,74.2196
124.5614,74.2216
124.5812,74.2293
124.6343,74.2071
124.6680,74.1718
124.7489,74.1170
124.7513,74.1157
124.8105,74.0913
124.8080,74.1167
124.8003,74.1372
124.8284,74.1636
124.8460,74.1685
124.9175,74.2176
125.0063,74.3021
125.0324,74.3286
125.1527,74.4262
125.2684,74.4906
125.4020,74.5407
125.2815,74.5439
125.2340,74.5400
125.1238,74.4907
124.9921,74.3767
124.9201,74.3056
124.8429,74.2339
124.8060,74.2062
124.7836,74.2145
124.7032,74.2532
124.5882,74.3128
124.5651,74.3247
124.3249,74.4036
124.0942,74.4003
123.8813,74.3162
123.6949,74.1529
123.5868,74.0246
123.4716,74.1244
123.3395,74.2451
123.1259,74.4585
122.9025,74.6985
122.6924,74.9401
122.5189,75.1580
122.3613,75.3783
122.1641,75.6925
121.9900,76.0264
121.8212,76.4124
121.7728,76.5278
121.7100,76.6673
121.6630,76.7588
121.6395,76.7866
121.6313,76.7339
121.6468,76.6175
121.6829,76.4574
121.7346,76.2723
121.7973,76.0809
121.8660,75.9019
121.9216,75.7759
122.0926,75.4302
122.3043,75.0469
122.5455,74.6450
122.8053,74.2431
123.0724,73.8601
123.0777,73.8528
123.1591,73.7316
123.2101,73.6387
123.2198,73.5938
123.2156,73.5906
123.1488,73.5735
123.0403,73.5660
123.0284,73.5658
122.8326,73.5311
122.6495,73.4465
122.4971,73.3261
122.3935,73.1840
122.3568,73.0342
122.3632,73.0107
Z" /> 
<path style="fill:#000000; fill-opacity:1.0000; stroke:none;fill-rule:evenodd;"
d="M 128.2088,70.5998
128.1936,70.7145
128.1782,70.8661
128.1512,71.1698
128.6944,71.2208
128.8738,71.2376
129.5056,71.2971
130.0569,71.3492
130.5314,71.3943
130.9324,71.4328
131.2636,71.4649
131.5285,71.4911
131.7306,71.5117
131.8734,71.5270
131.9605,71.5375
131.9954,71.5434
131.9815,71.5451
131.9225,71.5430
131.8952,71.5415
131.7471,71.5319
131.5311,71.5162
131.2601,71.4955
130.9466,71.4709
130.6035,71.4434
130.2435,71.4141
129.8794,71.3839
129.5238,71.3540
129.1895,71.3255
128.8893,71.2993
128.6358,71.2765
128.4418,71.2583
128.3201,71.2455
128.1272,71.2226
128.0502,71.5214
127.9545,71.8311
127.8205,72.1180
127.6434,72.3682
127.4083,72.6065
127.3238,72.6806
127.1965,72.7859
127.0994,72.8582
127.0486,72.8851
127.0029,72.9072
127.0174,72.9577
127.0854,73.0129
127.1363,73.0589
127.1706,73.1636
127.1774,73.1983
127.1840,73.2323
127.2251,73.2686
127.2343,73.2694
127.3207,73.2960
127.4514,73.3518
127.6022,73.4247
127.7488,73.5025
127.8667,73.5728
127.9319,73.6236
127.9346,73.6270
127.9718,73.7024
127.9456,73.7689
127.8491,73.8341
127.6755,73.9055
127.3866,74.0219
127.0339,74.1983
126.7206,74.3937
126.4693,74.5952
126.4260,74.6355
126.3136,74.7358
126.2317,74.8022
126.1958,74.8220
126.1963,74.7927
126.2404,74.7103
126.3245,74.5931
126.4373,74.4563
126.5678,74.3151
126.7052,74.1865
126.8874,74.0346
127.0620,73.9050
127.0955,73.8819
127.2196,73.7927
127.3068,73.7236
127.3401,73.6881
127.3261,73.6761
127.2497,73.6527
127.1289,73.6310
127.0604,73.6225
126.9495,73.6215
126.8622,73.6547
126.7570,73.7335
126.7037,73.7750
126.6037,73.8397
126.5374,73.8653
126.4930,73.8846
126.4052,73.9529
126.3021,74.0534
126.2405,74.1157
126.1002,74.2221
125.9570,74.2730
125.8135,74.3234
125.7089,74.4045
125.6363,74.4734
125.5636,74.5045
125.5513,74.5036
125.5430,74.4785
125.6087,74.4167
125.6182,74.4089
125.6761,74.3404
125.7337,74.2305
125.7604,74.1609
125.8495,74.1609
125.8540,74.1882
125.8845,74.2016
125.9581,74.1809
126.0912,74.1236
126.0978,74.1206
126.1863,74.0763
126.2584,74.0260
126.3193,73.9589
126.3744,73.8640
126.4247,73.7409
126.5318,73.7409
126.5362,73.7766
126.6753,73.7203
126.8246,73.6123
126.9561,73.4752
127.0497,73.3301
127.0854,73.1983
127.0848,73.1840
127.0434,73.0700
126.9567,72.9791
126.8525,72.9419
126.8481,72.9421
126.8275,72.9561
126.7834,72.9861
126.7114,73.0919
126.6416,73.2396
126.5837,73.4094
126.5470,73.5811
126.5390,73.6464
126.5318,73.7409
126.4247,73.7409
126.4290,73.7303
126.4884,73.5468
126.5580,73.3026
126.6430,72.9867
126.6491,72.9561
126.6307,72.9018
126.5459,72.8718
126.4864,72.8647
126.4047,72.8895
126.3181,72.9742
126.3054,72.9904
126.2352,73.1074
126.1526,73.2769
126.0661,73.4774
125.9840,73.6874
125.9149,73.8857
125.8672,74.0506
125.8495,74.1609
125.7604,74.1609
125.7971,74.0653
125.8727,73.8307
125.9013,73.7373
125.9746,73.5023
126.0318,73.3286
126.0790,73.2009
126.1223,73.1038
126.1675,73.0219
126.2208,72.9397
126.2470,72.9001
126.2962,72.8178
126.3097,72.7809
126.3022,72.7761
126.2417,72.7391
126.1442,72.6803
125.9915,72.5885
125.8636,72.6835
125.7592,72.7703
125.6276,72.9029
125.5097,73.0444
125.4178,73.1783
125.3642,73.2880
125.3613,73.3569
125.3737,73.3860
125.3401,73.3764
125.3333,73.3724
125.3039,73.3749
125.3150,73.4444
125.3163,73.4489
125.3267,73.5072
125.3038,73.4882
125.2990,73.4821
125.2631,73.4783
125.2095,73.5363
125.1303,73.6643
125.1054,73.7067
125.0257,73.8286
124.9534,73.9229
124.8972,73.9814
124.8660,73.9961
124.8685,73.9589
124.9137,73.8619
124.9334,73.8110
124.9180,73.7901
124.9071,73.7915
124.8936,73.7771
124.9119,73.7587
124.8918,73.7386
124.9309,73.7274
124.9659,73.7212
125.0129,73.6635
125.0433,73.5909
125.1347,73.4251
125.2592,73.2348
125.4021,73.0399
125.5484,72.8601
125.6833,72.7154
125.7919,72.6255
125.8646,72.5760
125.9062,72.5242
125.8888,72.4762
125.8558,72.4490
125.7955,72.4446
125.7781,72.4522
125.7794,72.4263
125.7857,72.3923
125.7516,72.3238
125.7199,72.2853
125.6653,72.1873
125.6647,72.1761
125.7019,72.1895
125.7832,72.2502
125.8966,72.3497
125.9152,72.3667
126.0519,72.4817
126.1577,72.5520
126.2191,72.5685
126.2473,72.5618
126.2570,72.5824
126.2626,72.6236
126.3302,72.6807
126.4454,72.7393
126.5888,72.7912
126.7408,72.8283
126.8819,72.8424
126.9336,72.8412
127.0338,72.8257
127.0548,72.8006
126.9985,72.7763
126.8668,72.7634
126.6755,72.7382
126.5162,72.6753
126.4049,72.5945
126.2105,72.4065
126.0227,72.1735
125.8595,71.9188
125.7389,71.6658
125.7144,71.6067
125.6661,71.5149
125.6306,71.4787
125.6144,71.5031
125.5983,71.5921
125.5911,71.7237
125.5894,71.8139
125.5830,71.8969
125.5696,71.9098
125.5459,71.8623
125.5372,71.8354
125.5173,71.7097
125.5151,71.5659
125.5268,71.3760
125.1874,71.3256
125.1495,71.3197
124.9311,71.2778
124.6874,71.2216
124.4644,71.1615
124.4389,71.1540
124.1742,71.0892
123.8962,71.0474
123.5694,71.0232
123.2307,71.0153
122.9504,71.0295
122.7353,71.0682
122.5767,71.1330
122.4658,71.2255
122.4422,71.2547
122.3412,71.4358
122.3213,71.6184
122.3832,71.8088
122.5272,72.0135
122.6021,72.1047
122.6697,72.1987
122.6958,72.2520
122.7074,72.2588
122.7671,72.2313
122.8606,72.1651
123.0128,72.0589
123.2749,71.9318
123.5825,71.8447
123.9469,71.7948
124.3792,71.7792
124.4781,71.7801
124.6277,71.7866
124.6999,71.7981
124.6999,71.8128
124.6328,71.8293
124.5039,71.8459
124.3182,71.8609
124.0809,71.8727
123.9364,71.8794
123.6461,71.9046
123.4129,71.9481
123.2177,72.0159
123.0411,72.1138
122.8638,72.2478
122.7664,72.3390
122.6280,72.4959
122.5230,72.6462
122.4644,72.7405
122.4164,72.7995
122.3979,72.7965
122.4079,72.7550
122.4551,72.6538
122.5279,72.5322
122.5831,72.4433
122.6228,72.3426
122.6139,72.2503
122.5524,72.1437
122.4345,72.0000
122.3283,71.8492
122.2763,71.6789
122.2822,71.4714
122.2951,71.4083
122.3770,71.2363
122.5087,71.1025
122.6698,71.0301
122.7769,71.0080
122.8747,70.9767
122.9256,70.9257
122.9476,70.8331
122.9583,70.6773
122.9584,70.6761
122.9942,70.6761
122.9988,70.8029
123.0238,70.8960
123.0815,70.9340
123.1839,70.9330
123.1902,70.9323
123.3572,70.9291
123.5839,70.9446
123.8488,70.9760
124.1302,71.0203
124.4065,71.0744
124.6562,71.1355
124.8085,71.1756
125.0399,71.2279
125.2433,71.2639
125.4053,71.2818
125.5125,71.2798
125.5512,71.2560
125.5491,71.2369
125.5319,71.1494
125.5030,71.0270
125.4643,70.9075
125.4041,70.8281
125.3006,70.7718
125.2730,70.7594
125.1491,70.6941
124.9908,70.6015
124.8256,70.4974
124.5040,70.3037
124.2051,70.1642
123.9302,70.0836
123.6659,70.0567
123.6489,70.0566
123.4745,70.0638
123.3544,70.0901
123.2611,70.1412
123.1304,70.2767
123.0312,70.4698
122.9942,70.6761
122.9584,70.6761
122.9703,70.5414
123.0062,70.3790
123.0693,70.2569
123.1115,70.1932
123.1339,70.1313
123.1052,70.1013
123.1003,70.0997
123.0277,70.0841
122.8872,70.0579
122.6925,70.0238
122.4572,69.9840
122.1952,69.9409
121.3440,69.8032
121.1541,69.8951
121.0503,69.9422
120.9217,69.9799
120.8125,69.9727
120.6913,69.9224
120.6088,69.8607
120.5350,69.7291
120.5349,69.5749
120.5380,69.5643
120.5520,69.5579
120.5600,69.6289
120.5726,69.7043
120.6475,69.8243
120.7740,69.8984
120.9346,69.9189
121.1114,69.8775
121.1815,69.8441
121.2307,69.7934
121.2266,69.7216
121.2191,69.6929
121.2155,69.6569
121.2441,69.6944
121.2626,69.7143
121.3654,69.7614
121.5338,69.7945
121.6135,69.8052
121.7854,69.8304
122.0074,69.8644
122.2594,69.9041
122.5217,69.9464
122.7664,69.9851
123.0047,70.0184
123.1749,70.0354
123.2857,70.0370
123.3457,70.0240
123.4134,70.0056
123.5446,69.9934
123.7011,69.9943
123.8344,69.9971
123.8609,69.9954
124.0050,69.9954
124.4007,70.1834
124.4954,70.2296
124.6904,70.3311
124.8658,70.4300
124.9926,70.5103
125.0210,70.5301
125.1768,70.6303
125.3048,70.6984
125.3914,70.7280
125.4233,70.7128
125.4203,70.6849
125.4037,70.5890
125.3774,70.4589
125.3446,70.3503
125.2509,70.1954
125.1439,70.0993
125.2604,70.0993
125.2955,70.1149
125.3180,70.1119
125.3239,70.0865
125.3176,70.0814
125.2670,70.0865
125.2604,70.0993
125.1439,70.0993
125.0969,70.0572
124.8704,69.9230
124.7595,69.8806
124.5485,69.8484
124.3323,69.8613
124.1495,69.9193
124.0050,69.9954
123.8609,69.9954
123.9357,69.9908
123.9744,69.9764
123.9739,69.9712
123.9359,69.9445
123.9345,69.9444
123.8686,69.9378
123.7327,69.9207
123.5405,69.8951
123.3054,69.8628
123.0411,69.8259
122.7610,69.7862
122.4787,69.7457
122.2078,69.7064
121.9617,69.6701
121.7542,69.6387
121.5986,69.6143
121.5086,69.5987
121.4252,69.5797
121.3319,69.5446
121.3225,69.5107
121.3518,69.4679
121.3478,69.3848
121.2782,69.3061
121.1552,69.2430
120.9911,69.2068
120.9429,69.2016
120.8887,69.1938
120.9127,69.1889
121.0183,69.1842
121.0738,69.1848
121.2346,69.2238
121.3473,69.3112
121.3954,69.4360
121.3967,69.4501
121.4049,69.4814
121.4272,69.5081
121.4724,69.5321
121.5493,69.5553
121.6666,69.5797
121.8333,69.6074
122.0580,69.6401
122.3497,69.6799
122.7171,69.7287
122.8278,69.7435
123.0901,69.7789
123.3394,69.8132
123.5519,69.8432
123.7037,69.8655
123.8399,69.8842
123.9745,69.8914
124.0848,69.8764
124.2044,69.8373
124.4539,69.7846
124.7150,69.8142
124.9785,69.9270
125.0216,69.9520
125.1205,70.0033
125.1922,70.0210
125.2411,69.9965
125.2714,69.9212
125.2877,69.7865
125.2942,69.5838
125.2955,69.3045
125.2961,69.2200
125.3623,69.2200
125.3627,69.4314
125.3696,69.8009
125.3852,70.0865
125.3866,70.1128
125.4158,70.3854
125.4596,70.6370
125.4781,70.7128
125.5202,70.8859
125.5998,71.1503
125.6388,71.2560
125.7071,71.4414
125.8779,71.7955
126.0742,72.1026
126.2885,72.3530
126.5136,72.5374
126.7423,72.6461
126.8394,72.6734
126.9550,72.7015
127.0185,72.7108
127.1721,72.6800
127.3920,72.5677
127.5900,72.3819
127.7627,72.1286
127.9071,71.8138
128.0200,71.4437
128.0982,71.0244
128.1386,70.5618
128.1334,69.8874
128.0522,69.1964
127.8916,68.5197
127.6497,67.8497
127.3248,67.1791
127.2477,67.0440
127.1275,66.8522
127.0068,66.6786
126.8963,66.5372
126.8064,66.4421
126.7477,66.4072
126.7453,66.4097
126.7483,66.4662
126.7698,66.5863
126.8067,66.7549
126.8562,66.9568
126.8901,67.0946
126.9708,67.4676
127.0397,67.8530
127.0959,68.2389
127.1383,68.6135
127.1659,68.9648
127.1778,69.2809
127.1728,69.5499
127.1500,69.7598
127.1083,69.8988
127.0478,69.9938
126.9638,70.0497
126.8687,70.0243
126.7540,69.9179
126.7141,69.8648
126.6197,69.6906
126.5201,69.4488
126.4187,69.1512
126.3186,68.8096
126.2233,68.4357
126.1361,68.0414
126.0603,67.6383
125.9992,67.2383
125.9749,67.0579
125.9347,66.7728
125.9005,66.5653
125.8696,66.4311
125.8393,66.3654
125.8066,66.3638
125.7688,66.4216
125.7231,66.5344
125.6668,66.6976
125.5935,66.9454
125.4946,67.4132
125.4226,67.9523
125.3783,68.5566
125.3623,69.2200
125.2961,69.2200
125.2969,69.1276
125.3196,68.5607
125.3679,68.0031
125.4393,67.4794
125.5312,67.0143
125.5492,66.9415
125.6084,66.7302
125.6719,66.5381
125.7336,66.3813
125.7875,66.2755
125.8275,66.2367
125.8433,66.2424
125.8768,66.2940
125.9119,66.4045
125.9502,66.5805
125.9931,66.8285
126.0421,67.1549
126.0536,67.2336
126.1315,67.7132
126.2182,68.1633
126.3118,68.5775
126.4102,68.9499
126.5112,69.2743
126.6130,69.5446
126.7133,69.7546
126.8101,69.8983
126.9015,69.9696
126.9853,69.9623
127.0225,69.9316
127.0698,69.8522
127.1012,69.7277
127.1180,69.5484
127.1213,69.3043
127.1126,68.9856
127.0981,68.7298
127.0297,68.0914
126.9177,67.4342
126.7676,66.7929
126.7188,66.5976
126.6920,66.4403
126.6998,66.3572
126.7439,66.3456
126.8264,66.4027
126.9489,66.5258
127.0599,66.6606
127.2330,66.9206
127.4094,67.2373
127.5817,67.5942
127.7429,67.9752
127.8858,68.3640
128.0030,68.7442
128.0875,69.0995
128.1078,69.2188
128.1384,69.4512
128.1642,69.7079
128.1811,69.9520
128.1907,70.1383
128.2015,70.2896
128.2156,70.3841
128.2369,70.4368
128.2693,70.4629
128.3168,70.4777
128.3426,70.4835
128.4493,70.5061
128.6251,70.5424
128.8609,70.5907
129.1473,70.6489
129.4751,70.7153
129.8350,70.7879
130.2178,70.8649
130.3085,70.8831
130.7875,70.9797
131.1862,71.0609
131.5073,71.1273
131.7538,71.1795
131.9284,71.2182
132.0340,71.2440
132.0734,71.2575
132.0495,71.2593
131.9651,71.2501
131.9364,71.2455
131.8253,71.2255
131.6452,71.1917
131.4055,71.1459
131.1155,71.0901
130.7846,71.0258
130.4221,70.9551
130.0374,70.8796
129.8006,70.8331
129.4364,70.7625
129.1040,70.6990
128.8121,70.6442
128.5693,70.5997
128.3841,70.5671
128.2653,70.5479
128.2214,70.5439
128.2207,70.5450
128.2171,70.5618
Z" /> 
</g> 
</svg>
